<mxfile host="app.diagrams.net" agent="Mozilla/5.0 (Windows NT 10.0; Win64; x64) AppleWebKit/537.36 (KHTML, like Gecko) Chrome/139.0.0.0 Safari/537.36 Edg/139.0.0.0" version="28.1.2">
  <diagram id="UrurUdrSDqCXS8JNvl6W" name="Pagina-1">
    <mxGraphModel dx="1034" dy="1747" grid="1" gridSize="10" guides="1" tooltips="1" connect="1" arrows="1" fold="1" page="1" pageScale="1" pageWidth="827" pageHeight="1169" math="0" shadow="0">
      <root>
        <mxCell id="0" />
        <mxCell id="1" parent="0" />
        <mxCell id="wKtUoYY_m25yU4mqdhPB-1" value="l2: Therapeutic Plan" style="rounded=0;whiteSpace=wrap;html=1;fillColor=#fad7ac;strokeColor=#b46504;" parent="1" vertex="1">
          <mxGeometry x="130" y="155" width="130" height="60" as="geometry" />
        </mxCell>
        <mxCell id="wKtUoYY_m25yU4mqdhPB-2" value="" style="endArrow=classic;html=1;rounded=0;exitX=0;exitY=0;exitDx=85;exitDy=40;exitPerimeter=0;entryX=0.5;entryY=0;entryDx=0;entryDy=0;" parent="1" source="wKtUoYY_m25yU4mqdhPB-16" target="wKtUoYY_m25yU4mqdhPB-18" edge="1">
          <mxGeometry width="50" height="50" relative="1" as="geometry">
            <mxPoint x="380" y="235" as="sourcePoint" />
            <mxPoint x="430" y="185" as="targetPoint" />
          </mxGeometry>
        </mxCell>
        <mxCell id="wKtUoYY_m25yU4mqdhPB-3" value="" style="endArrow=classic;html=1;rounded=0;exitX=0.5;exitY=1;exitDx=0;exitDy=0;entryX=0.5;entryY=0;entryDx=0;entryDy=0;" parent="1" source="wKtUoYY_m25yU4mqdhPB-18" target="wKtUoYY_m25yU4mqdhPB-19" edge="1">
          <mxGeometry width="50" height="50" relative="1" as="geometry">
            <mxPoint x="380" y="235" as="sourcePoint" />
            <mxPoint x="375" y="255" as="targetPoint" />
          </mxGeometry>
        </mxCell>
        <mxCell id="wKtUoYY_m25yU4mqdhPB-4" value="" style="endArrow=classic;html=1;rounded=0;exitX=0.5;exitY=1;exitDx=0;exitDy=0;entryX=0.5;entryY=0;entryDx=0;entryDy=0;" parent="1" source="wKtUoYY_m25yU4mqdhPB-26" target="wKtUoYY_m25yU4mqdhPB-15" edge="1">
          <mxGeometry width="50" height="50" relative="1" as="geometry">
            <mxPoint x="375" y="365" as="sourcePoint" />
            <mxPoint x="374.00125000000025" y="406.8050000000003" as="targetPoint" />
          </mxGeometry>
        </mxCell>
        <mxCell id="wKtUoYY_m25yU4mqdhPB-5" value="&amp;lt;&amp;lt;datastore&amp;gt;&amp;gt;&lt;div&gt;l5.1: Therapeutic Plan&lt;/div&gt;" style="rounded=0;whiteSpace=wrap;html=1;fillColor=#fad7ac;strokeColor=#b46504;" parent="1" vertex="1">
          <mxGeometry x="305" y="585" width="140" height="60" as="geometry" />
        </mxCell>
        <mxCell id="wKtUoYY_m25yU4mqdhPB-6" value="" style="endArrow=classic;html=1;rounded=0;exitX=0.5;exitY=1;exitDx=0;exitDy=0;entryX=0.5;entryY=0;entryDx=0;entryDy=0;" parent="1" source="wKtUoYY_m25yU4mqdhPB-15" target="wKtUoYY_m25yU4mqdhPB-5" edge="1">
          <mxGeometry width="50" height="50" relative="1" as="geometry">
            <mxPoint x="380" y="545" as="sourcePoint" />
            <mxPoint x="430" y="495" as="targetPoint" />
          </mxGeometry>
        </mxCell>
        <mxCell id="wKtUoYY_m25yU4mqdhPB-7" value="" style="endArrow=classic;html=1;rounded=0;exitX=0.5;exitY=1;exitDx=0;exitDy=0;entryX=0.5;entryY=0;entryDx=0;entryDy=0;" parent="1" source="wKtUoYY_m25yU4mqdhPB-5" target="wKtUoYY_m25yU4mqdhPB-8" edge="1">
          <mxGeometry width="50" height="50" relative="1" as="geometry">
            <mxPoint x="380" y="545" as="sourcePoint" />
            <mxPoint x="230" y="735" as="targetPoint" />
          </mxGeometry>
        </mxCell>
        <mxCell id="wKtUoYY_m25yU4mqdhPB-8" value="" style="shape=sumEllipse;perimeter=ellipsePerimeter;whiteSpace=wrap;html=1;backgroundOutline=1;fillColor=#fad9d5;strokeColor=#ae4132;" parent="1" vertex="1">
          <mxGeometry x="360" y="665" width="30" height="30" as="geometry" />
        </mxCell>
        <mxCell id="wKtUoYY_m25yU4mqdhPB-9" value="" style="endArrow=none;dashed=1;html=1;dashPattern=1 3;strokeWidth=2;rounded=0;entryX=1;entryY=0.5;entryDx=0;entryDy=0;entryPerimeter=0;fillColor=#b0e3e6;strokeColor=#0e8088;" parent="1" target="wKtUoYY_m25yU4mqdhPB-16" edge="1">
          <mxGeometry width="50" height="50" relative="1" as="geometry">
            <mxPoint x="540" y="415" as="sourcePoint" />
            <mxPoint x="430" y="85" as="targetPoint" />
            <Array as="points">
              <mxPoint x="540" y="255" />
              <mxPoint x="540" y="85" />
            </Array>
          </mxGeometry>
        </mxCell>
        <mxCell id="wKtUoYY_m25yU4mqdhPB-10" value="" style="endArrow=none;dashed=1;html=1;dashPattern=1 3;strokeWidth=2;rounded=0;exitX=1;exitY=0.5;exitDx=0;exitDy=0;fillColor=#b0e3e6;strokeColor=#0e8088;" parent="1" source="wKtUoYY_m25yU4mqdhPB-5" edge="1">
          <mxGeometry width="50" height="50" relative="1" as="geometry">
            <mxPoint x="630" y="605" as="sourcePoint" />
            <mxPoint x="540" y="410" as="targetPoint" />
            <Array as="points">
              <mxPoint x="540" y="615" />
            </Array>
          </mxGeometry>
        </mxCell>
        <mxCell id="wKtUoYY_m25yU4mqdhPB-11" value="&amp;lt;&amp;lt;delay&amp;gt;&amp;gt;&lt;br&gt;30 minutes" style="shape=note;whiteSpace=wrap;html=1;backgroundOutline=1;darkOpacity=0.05;size=15;fillColor=#b0e3e6;strokeColor=#0e8088;" parent="1" vertex="1">
          <mxGeometry x="510" y="195" width="90" height="50" as="geometry" />
        </mxCell>
        <mxCell id="wKtUoYY_m25yU4mqdhPB-12" value="&amp;lt;&amp;lt;frequency&amp;gt;&amp;gt;&lt;br&gt;nAttendingPhysician * 2 / hour" style="shape=note;whiteSpace=wrap;html=1;backgroundOutline=1;darkOpacity=0.05;size=15;fillColor=#d5e8d4;strokeColor=#82b366;" parent="1" vertex="1">
          <mxGeometry x="380" y="-70" width="165" height="50" as="geometry" />
        </mxCell>
        <mxCell id="wKtUoYY_m25yU4mqdhPB-13" value="" style="endArrow=none;dashed=1;html=1;dashPattern=1 3;strokeWidth=2;rounded=0;entryX=0.5;entryY=1;entryDx=0;entryDy=0;entryPerimeter=0;fillColor=#d5e8d4;strokeColor=#82b366;" parent="1" target="wKtUoYY_m25yU4mqdhPB-12" edge="1">
          <mxGeometry width="50" height="50" relative="1" as="geometry">
            <mxPoint x="463" y="60" as="sourcePoint" />
            <mxPoint x="430" y="185" as="targetPoint" />
            <Array as="points" />
          </mxGeometry>
        </mxCell>
        <mxCell id="wKtUoYY_m25yU4mqdhPB-14" value="&amp;lt;&amp;lt;complexity&amp;gt;&amp;gt;&lt;br&gt;medium" style="shape=note;whiteSpace=wrap;html=1;backgroundOutline=1;darkOpacity=0.05;size=15;fillColor=#b1ddf0;strokeColor=#10739e;" parent="1" vertex="1">
          <mxGeometry x="560" width="120" height="50" as="geometry" />
        </mxCell>
        <mxCell id="wKtUoYY_m25yU4mqdhPB-15" value="A5 - Store Therapeutic Plan" style="rounded=1;whiteSpace=wrap;html=1;fillColor=#fad9d5;strokeColor=#ae4132;" parent="1" vertex="1">
          <mxGeometry x="305" y="500" width="140" height="60" as="geometry" />
        </mxCell>
        <mxCell id="wKtUoYY_m25yU4mqdhPB-16" value="A1 - Modify Therapeutic Plan" style="html=1;shape=mxgraph.infographic.ribbonSimple;notch1=20;notch2=0;align=center;verticalAlign=middle;fontSize=14;fontStyle=0;fillColor=#fad9d5;flipH=0;spacingRight=0;spacingLeft=14;whiteSpace=wrap;strokeColor=#ae4132;" parent="1" vertex="1">
          <mxGeometry x="289.38" y="65" width="180" height="40" as="geometry" />
        </mxCell>
        <mxCell id="wKtUoYY_m25yU4mqdhPB-18" value="A2 - Get Therapeutic Plan" style="rounded=1;whiteSpace=wrap;html=1;fillColor=#fad9d5;strokeColor=#ae4132;" parent="1" vertex="1">
          <mxGeometry x="305" y="155" width="140" height="60" as="geometry" />
        </mxCell>
        <mxCell id="wKtUoYY_m25yU4mqdhPB-32" style="edgeStyle=orthogonalEdgeStyle;rounded=0;orthogonalLoop=1;jettySize=auto;html=1;exitX=0.5;exitY=1;exitDx=0;exitDy=0;entryX=0.5;entryY=0;entryDx=0;entryDy=0;" parent="1" source="wKtUoYY_m25yU4mqdhPB-19" target="wKtUoYY_m25yU4mqdhPB-30" edge="1">
          <mxGeometry relative="1" as="geometry" />
        </mxCell>
        <mxCell id="wKtUoYY_m25yU4mqdhPB-19" value="A3 - Modify Therapeutic Plan" style="rounded=1;whiteSpace=wrap;html=1;fillColor=#fad9d5;strokeColor=#ae4132;" parent="1" vertex="1">
          <mxGeometry x="305" y="240" width="140" height="60" as="geometry" />
        </mxCell>
        <mxCell id="wKtUoYY_m25yU4mqdhPB-20" value="" style="endArrow=classic;html=1;rounded=0;exitX=0.5;exitY=1;exitDx=0;exitDy=0;entryX=0.5;entryY=0;entryDx=0;entryDy=0;" parent="1" source="wKtUoYY_m25yU4mqdhPB-30" target="wKtUoYY_m25yU4mqdhPB-17" edge="1">
          <mxGeometry width="50" height="50" relative="1" as="geometry">
            <mxPoint x="470" y="330" as="sourcePoint" />
            <mxPoint x="470" y="360" as="targetPoint" />
          </mxGeometry>
        </mxCell>
        <mxCell id="wKtUoYY_m25yU4mqdhPB-36" value="yes" style="edgeLabel;html=1;align=center;verticalAlign=middle;resizable=0;points=[];" parent="wKtUoYY_m25yU4mqdhPB-20" vertex="1" connectable="0">
          <mxGeometry x="0.12" y="1" relative="1" as="geometry">
            <mxPoint x="14" y="-1" as="offset" />
          </mxGeometry>
        </mxCell>
        <mxCell id="wKtUoYY_m25yU4mqdhPB-21" value="" style="endArrow=classic;html=1;rounded=0;exitX=1;exitY=0.5;exitDx=0;exitDy=0;entryX=0;entryY=0.5;entryDx=0;entryDy=0;" parent="1" source="wKtUoYY_m25yU4mqdhPB-1" target="wKtUoYY_m25yU4mqdhPB-18" edge="1">
          <mxGeometry width="50" height="50" relative="1" as="geometry">
            <mxPoint x="250" y="250" as="sourcePoint" />
            <mxPoint x="250" y="280" as="targetPoint" />
          </mxGeometry>
        </mxCell>
        <mxCell id="wKtUoYY_m25yU4mqdhPB-22" value="&amp;lt;&amp;lt;datastore&amp;gt;&amp;gt;&lt;div&gt;l2.1: Therapeutic Plan&lt;/div&gt;" style="rounded=0;whiteSpace=wrap;html=1;fillColor=#fad7ac;strokeColor=#b46504;" parent="1" vertex="1">
          <mxGeometry x="125" y="55" width="140" height="60" as="geometry" />
        </mxCell>
        <mxCell id="wKtUoYY_m25yU4mqdhPB-24" value="" style="endArrow=classic;html=1;rounded=0;exitX=0.5;exitY=1;exitDx=0;exitDy=0;entryX=0.5;entryY=0;entryDx=0;entryDy=0;" parent="1" source="wKtUoYY_m25yU4mqdhPB-22" target="wKtUoYY_m25yU4mqdhPB-1" edge="1">
          <mxGeometry width="50" height="50" relative="1" as="geometry">
            <mxPoint x="180" y="130" as="sourcePoint" />
            <mxPoint x="225" y="130" as="targetPoint" />
          </mxGeometry>
        </mxCell>
        <mxCell id="wKtUoYY_m25yU4mqdhPB-25" value="" style="endArrow=classic;html=1;rounded=0;exitX=0.5;exitY=1;exitDx=0;exitDy=0;entryX=0.5;entryY=0;entryDx=0;entryDy=0;" parent="1" target="wKtUoYY_m25yU4mqdhPB-17" edge="1">
          <mxGeometry width="50" height="50" relative="1" as="geometry">
            <mxPoint x="375" y="365" as="sourcePoint" />
            <mxPoint x="375" y="440" as="targetPoint" />
          </mxGeometry>
        </mxCell>
        <mxCell id="wKtUoYY_m25yU4mqdhPB-34" style="edgeStyle=orthogonalEdgeStyle;rounded=0;orthogonalLoop=1;jettySize=auto;html=1;exitX=0.5;exitY=1;exitDx=0;exitDy=0;entryX=0.5;entryY=0;entryDx=0;entryDy=0;" parent="1" source="wKtUoYY_m25yU4mqdhPB-17" target="wKtUoYY_m25yU4mqdhPB-26" edge="1">
          <mxGeometry relative="1" as="geometry" />
        </mxCell>
        <mxCell id="wKtUoYY_m25yU4mqdhPB-17" value="A4 - Update Sensors Frequencies" style="rounded=1;whiteSpace=wrap;html=1;fillColor=#fad9d5;strokeColor=#ae4132;" parent="1" vertex="1">
          <mxGeometry x="305" y="370" width="140" height="60" as="geometry" />
        </mxCell>
        <mxCell id="wKtUoYY_m25yU4mqdhPB-26" value="" style="rhombus;whiteSpace=wrap;html=1;fillColor=#f8cecc;strokeColor=#b85450;" parent="1" vertex="1">
          <mxGeometry x="355" y="450" width="40" height="40" as="geometry" />
        </mxCell>
        <mxCell id="wKtUoYY_m25yU4mqdhPB-35" style="edgeStyle=orthogonalEdgeStyle;rounded=0;orthogonalLoop=1;jettySize=auto;html=1;exitX=1;exitY=0.5;exitDx=0;exitDy=0;entryX=1;entryY=0.5;entryDx=0;entryDy=0;" parent="1" source="wKtUoYY_m25yU4mqdhPB-30" target="wKtUoYY_m25yU4mqdhPB-26" edge="1">
          <mxGeometry relative="1" as="geometry" />
        </mxCell>
        <mxCell id="wKtUoYY_m25yU4mqdhPB-30" value="Physiological Sensors Frequencies Updated?" style="shape=hexagon;perimeter=hexagonPerimeter2;whiteSpace=wrap;html=1;fixedSize=1;fillColor=#f8cecc;strokeColor=#b85450;" parent="1" vertex="1">
          <mxGeometry x="265" y="320" width="220" height="30" as="geometry" />
        </mxCell>
        <mxCell id="wKtUoYY_m25yU4mqdhPB-37" value="no" style="text;html=1;align=center;verticalAlign=middle;resizable=0;points=[];autosize=1;strokeColor=none;fillColor=none;" parent="1" vertex="1">
          <mxGeometry x="470" y="310" width="40" height="30" as="geometry" />
        </mxCell>
        <mxCell id="wKtUoYY_m25yU4mqdhPB-39" value="" style="strokeWidth=2;html=1;shape=mxgraph.flowchart.start_2;whiteSpace=wrap;fillColor=#f8cecc;strokeColor=#b85450;" parent="1" vertex="1">
          <mxGeometry x="364.38" width="30.62" height="30" as="geometry" />
        </mxCell>
        <mxCell id="wKtUoYY_m25yU4mqdhPB-40" value="" style="endArrow=classic;html=1;rounded=0;exitX=0.5;exitY=1;exitDx=0;exitDy=0;exitPerimeter=0;entryX=0;entryY=0;entryDx=90;entryDy=0;entryPerimeter=0;" parent="1" source="wKtUoYY_m25yU4mqdhPB-39" target="wKtUoYY_m25yU4mqdhPB-16" edge="1">
          <mxGeometry width="50" height="50" relative="1" as="geometry">
            <mxPoint x="370" y="50" as="sourcePoint" />
            <mxPoint x="371" y="100" as="targetPoint" />
          </mxGeometry>
        </mxCell>
      </root>
    </mxGraphModel>
  </diagram>
</mxfile>
